<?xml version="1.0" encoding="UTF-8" standalone="no"?>
<!-- Generator: Adobe Illustrator 18.0.0, SVG Export Plug-In . SVG Version: 6.00 Build 0)  -->

<svg
   xmlns:dc="http://purl.org/dc/elements/1.1/"
   xmlns:cc="http://creativecommons.org/ns#"
   xmlns:rdf="http://www.w3.org/1999/02/22-rdf-syntax-ns#"
   xmlns:svg="http://www.w3.org/2000/svg"
   xmlns="http://www.w3.org/2000/svg"
   xmlns:sodipodi="http://sodipodi.sourceforge.net/DTD/sodipodi-0.dtd"
   xmlns:inkscape="http://www.inkscape.org/namespaces/inkscape"
   version="1.1"
   id="svg5204"
   sodipodi:docname="mlibretextlogo.svg"
   inkscape:version="0.92.3 (2405546, 2018-03-11)"
   x="0px"
   y="0px"
   viewBox="1338.7 1396.4 112.83284 46.938464"
   width="250"
   height="104"
   enable-background="new 1338.7 1396.4 150 135.8"
   xml:space="preserve"><metadata
   id="metadata108"><rdf:RDF><cc:Work
       rdf:about=""><dc:format>image/svg+xml</dc:format><dc:type
         rdf:resource="http://purl.org/dc/dcmitype/StillImage" /><dc:title></dc:title></cc:Work></rdf:RDF></metadata><defs
   id="defs106" /><sodipodi:namedview
   pagecolor="#ffffff"
   bordercolor="#666666"
   borderopacity="1"
   objecttolerance="10"
   gridtolerance="10"
   guidetolerance="10"
   inkscape:pageopacity="0"
   inkscape:pageshadow="2"
   inkscape:window-width="1366"
   inkscape:window-height="706"
   id="namedview104"
   showgrid="false"
   inkscape:zoom="3.8185435"
   inkscape:cx="135.59552"
   inkscape:cy="52.109021"
   inkscape:window-x="-8"
   inkscape:window-y="-8"
   inkscape:window-maximized="1"
   inkscape:current-layer="svg5204" />

<g
   id="g85"
   transform="matrix(0.7417867,0,0,0.7417867,346.53767,305.88326)">

	<g
   id="g74">

		<path
   d="m 1378.1,1504.2 h 1.4 v 28 h -5.3 v -24.6 c 0,-0.8 1.7,-3.4 3.9,-3.4 z"
   id="path60"
   inkscape:connector-curvature="0"
   style="fill:#2d3277" />

		<path
   d="m 1407.1,1510.4 c -2.6,0 -4.6,1.1 -6,3.3 v -9.5 h -0.6 v 0 c -2.6,0 -4,1.4 -4.7,2.6 v -0.2 16.1 c 0,6.3 3.3,9.5 9.9,9.5 6.6,-0.1 9.8,-3.7 9.8,-10.7 0,-7.3 -2.8,-10.9 -8.4,-11.1 z m -1.6,17.2 c -3,0 -4.5,-2.2 -4.4,-6.4 0.2,-4.1 1.6,-6.1 4.5,-6.1 2.9,0 4.3,2 4.5,6.1 0,4.3 -1.6,6.4 -4.6,6.4 z"
   id="path62"
   inkscape:connector-curvature="0"
   style="fill:#2d3277" />

		<path
   d="m 1418.6,1521.2 c 0.2,-6.8 3.5,-10.6 10.6,-10.6 h 1.6 v 5.5 h -2.5 c -3,0 -4.3,1.9 -4.3,5 v 11 h -5.4 z"
   id="path64"
   inkscape:connector-curvature="0"
   style="fill:#2d3277" />

		<g
   id="g68">

			<path
   d="m 1439.2,1526.7 c 0.9,0.8 2.1,1.2 3.7,1.2 1.1,0 2.1,-0.3 2.9,-0.9 0.8,-0.6 1.3,-1.2 1.5,-1.8 h 5 c -0.8,2.5 -2,4.2 -3.7,5.3 -1.7,1.1 -3.6,1.6 -6,1.6 -1.6,0 -3.1,-0.3 -4.4,-0.8 -1.3,-0.5 -2.4,-1.3 -3.3,-2.2 -0.9,-1 -1.6,-2.1 -2.1,-3.4 -0.5,-1.3 -0.7,-2.8 -0.7,-4.4 0,-1.5 0.3,-3 0.8,-4.3 0.5,-1.3 1.2,-2.5 2.1,-3.4 0.9,-1 2,-1.7 3.3,-2.3 1.3,-0.6 2.7,-0.8 4.3,-0.8 1.7,0 3.3,0.3 4.6,1 1.3,0.7 2.4,1.6 3.2,2.7 0.8,1.1 1.4,2.4 1.8,3.9 0.4,1.4 0.5,3 0.4,4.6 h -14.9 c 0.2,1.9 0.7,3.2 1.5,4 z m 6.4,-10.8 c -0.7,-0.7 -1.7,-1.1 -3.1,-1.1 -0.9,0 -1.7,0.2 -2.3,0.5 -0.6,0.3 -1.1,0.7 -1.4,1.1 -0.4,0.5 -0.6,0.9 -0.8,1.4 -0.2,0.5 -0.2,1 -0.3,1.4 h 9.2 c -0.1,-1.5 -0.6,-2.6 -1.3,-3.3 z"
   id="path66"
   inkscape:connector-curvature="0"
   style="fill:#2d3277" />

		</g>

		<rect
   x="1385.2"
   y="1504.2"
   width="5.3000002"
   height="4.8000002"
   id="rect70"
   style="fill:#2d3277" />

		<rect
   x="1385.2"
   y="1511.4"
   width="5.3000002"
   height="20.700001"
   id="rect72"
   style="fill:#2d3277" />

	</g>

	<g
   id="g83">

		<path
   id="path96_8_"
   inkscape:connector-curvature="0"
   d="m 1481.9,1493.1 c -0.9,1 -2.1,1.6 -3.6,1.6 -1.5,0 -2.7,-0.6 -3.6,-1.6 -0.9,-1 -1.2,-2.7 -1.2,-4.7 0,-2.1 0.4,-3.6 1.2,-4.6 0.9,-1 2.1,-1.6 3.6,-1.6 1.5,0 2.7,0.6 3.6,1.6 0.9,1 1.2,2.7 1.2,4.6 0,1.9 -0.3,3.5 -1.2,4.7 z m 4.2,-12.4 c -1.6,-2.1 -4.3,-3.3 -7.8,-3.3 -3.4,0 -6.2,1 -7.8,3.3 -1.6,2.1 -2.6,4.7 -2.6,7.6 0,3 0.9,5.6 2.6,7.6 1.6,2.1 4.3,3.2 7.8,3.2 3.4,0 6.2,-1 7.8,-3.2 1.6,-2.1 2.6,-4.7 2.6,-7.6 0.1,-2.8 -0.8,-5.4 -2.6,-7.6"
   style="fill:#2d3277" />

		<path
   id="path108_8_"
   inkscape:connector-curvature="0"
   d="m 1460.1,1493.1 c -0.7,1 -1.9,1.6 -3.4,1.6 -1.5,0 -2.7,-0.6 -3.3,-1.6 -0.7,-1.2 -1,-2.7 -1,-4.7 0,-1.8 0.3,-3.2 1,-4.3 0.7,-1.2 1.8,-1.8 3.4,-1.8 1,0 1.9,0.3 2.7,0.9 1.2,1 1.9,3 1.9,5.6 -0.3,1.8 -0.5,3.3 -1.3,4.3 z m 6.2,-21.8 c 0,0 -5.4,-0.6 -5.4,3.7 v 5.7 c -0.6,-0.9 -1.3,-1.6 -2.4,-2.3 -0.9,-0.6 -2.1,-0.7 -3.3,-0.7 -2.7,0 -4.8,1 -6.5,3 -1.6,1.9 -2.4,4.8 -2.4,8.4 0,3 0.7,5.6 2.4,7.3 1.6,1.9 4.8,2.7 7.6,2.7 9.9,0 9.7,-8.4 9.7,-8.4 l 0.3,-19.4"
   style="fill:#2d3277" />

		<path
   id="path98_8_"
   inkscape:connector-curvature="0"
   d="m 1439.7,1490.6 c 0,1.8 -0.6,3 -1.5,3.7 -1,0.6 -2.1,1 -3.2,1 -0.7,0 -1.3,-0.1 -1.8,-0.6 -0.5,-0.5 -0.7,-1 -0.7,-1.9 0,-1 0.4,-1.8 1.2,-2.3 0.4,-0.3 1.3,-0.6 2.4,-0.7 l 1.2,-0.3 c 0.6,-0.1 1,-0.3 1.5,-0.3 0.3,-0.1 0.7,-0.3 1,-0.4 z m 2.7,-11.7 c -1.8,-0.9 -3.7,-1.3 -6,-1.3 -3.4,0 -5.9,0.9 -7.3,2.7 -0.9,1.2 -1.3,2.6 -1.5,4.3 h 5.1 c 0.1,-0.7 0.4,-1.3 0.7,-1.8 0.6,-0.6 1.5,-0.9 2.7,-0.9 1.2,0 1.9,0.1 2.6,0.4 0.6,0.3 0.9,0.9 0.9,1.8 0,0.7 -0.4,1.2 -1.2,1.5 -0.4,0.1 -1.2,0.3 -2.1,0.4 l -1.8,0.1 c -2.1,0.3 -3.6,0.7 -4.7,1.3 -1.9,1 -2.9,3 -2.9,5.4 0,1.9 0.6,3.4 1.8,4.5 1.2,1 2.7,1.5 4.6,1.6 11.7,0.4 11.6,-6.2 11.6,-7.5 v -7.6 c 0.1,-2.2 -0.7,-4 -2.5,-4.9"
   style="fill:#2d3277" />

		<path
   id="path100_8_"
   inkscape:connector-curvature="0"
   d="m 1415.9,1482.2 c 1.3,0 2.3,0.4 3,1.2 0.4,0.6 0.7,1.3 0.7,2.1 h 5.7 c -0.3,-2.9 -1.3,-5 -3,-6 -1.6,-1.2 -3.9,-1.6 -6.6,-1.6 -3.2,0 -5.7,0.9 -7.5,2.9 -1.8,2 -2.7,4.7 -2.7,8.1 0,3.2 0.7,5.6 2.4,7.5 1.6,1.9 4.2,2.9 7.6,2.9 3.4,0 6,-1.2 7.8,-3.4 1,-1.5 1.6,-3 1.8,-4.7 h -5.7 c -0.1,1 -0.4,1.9 -1,2.6 -0.6,0.6 -1.5,1 -2.9,1 -1.8,0 -3.2,-0.9 -3.7,-2.6 -0.3,-0.9 -0.6,-2.1 -0.6,-3.6 0,-1.5 0.1,-2.9 0.6,-3.7 0.9,-1.8 2.1,-2.7 4.1,-2.7"
   style="fill:#2d3277" />

		<path
   id="path102_8_"
   inkscape:connector-curvature="0"
   d="m 1404,1477.7 c -11.9,0 -11.1,10.5 -11.1,10.5 v 10.6 h 5.4 v -9.9 c 0,-1.6 0.1,-2.9 0.6,-3.6 0.7,-1.3 2.1,-2.1 4.3,-2.1 0.1,0 0.3,0 0.6,0 0.3,0 0.6,0 0.9,0.1 v -5.4 c -0.3,0 -0.4,0 -0.4,0 -0.1,-0.2 -0.1,-0.2 -0.3,-0.2"
   style="fill:#2d3277" />

		<path
   id="path104_8_"
   inkscape:connector-curvature="0"
   d="m 1377.2,1483.2 c 0.7,-0.7 1.8,-1.2 3.2,-1.2 1.2,0 2.3,0.3 3.2,1 0.9,0.7 1.3,1.8 1.3,3.2 h -9.2 c 0.3,-1.2 0.7,-2.2 1.5,-3 z m 7.2,9.9 c -0.1,0.3 -0.4,0.6 -0.7,0.7 -0.7,0.6 -1.8,0.7 -3,0.7 -1.2,0 -2.1,-0.1 -2.9,-0.7 -1.3,-0.7 -2.1,-2.3 -2.1,-4.2 h 14.8 c 0,-1.8 0,-3.2 -0.1,-4 -0.3,-1.6 -0.7,-3 -1.6,-4.2 -0.9,-1.3 -2.1,-2.4 -3.4,-3 -1.3,-0.6 -3,-0.9 -4.8,-0.9 -3,0 -5.4,0.9 -7.2,2.9 -1.8,1.9 -2.9,4.6 -2.9,8.1 0,3.7 1,6.5 3.2,8.1 2.1,1.6 4.5,2.6 7.2,2.6 3.3,0 5.9,-1 7.6,-3 1,-1 1.6,-2.1 1.8,-3.2 l -5.9,0.1"
   style="fill:#2d3277" />

		<path
   id="path106_8_"
   inkscape:connector-curvature="0"
   d="m 1368.2,1498.7 h -5 v -12.3 c 0,-1.2 -0.3,-3.7 -3.6,-3.7 -2.1,0 -3.7,1.5 -3.7,3.7 v 12.3 h -5 v -12.3 c 0,-1.2 -0.3,-3.7 -3.6,-3.7 -2.1,0 -3.6,1.5 -3.6,3.7 v 12.3 h -5 v -12.2 c 0,-5.1 3.3,-9 8.5,-9 2.6,0 4.7,1 6.2,2.9 1.5,-1.8 3.6,-2.9 6.2,-2.9 5.4,0 8.5,3.7 8.5,9 l 0.1,12.2"
   style="fill:#2d3277" />

	</g>

</g>



</svg>