<svg width="90" height="43" viewBox="0 0 90 43" fill="none" xmlns="http://www.w3.org/2000/svg">
<g clip-path="url(#clip0_610_15852)">
<path d="M89.3867 23.3423H83.6646L83.6432 31.3467C83.6432 35.1959 86.9268 35.9786 89.4179 36.0822C89.7451 36.0954 90 36.3683 90 36.6955V41.88C90 42.2286 89.7139 42.5032 89.3653 42.4949C85.0523 42.3913 81.4612 41.2255 79.3204 39.0255C76.3228 35.9457 76.3919 32.427 76.4149 32.1178L76.479 9.99233C76.479 9.65361 76.7553 9.38065 77.0924 9.38065H83.0989C83.4393 9.38065 83.7155 9.65854 83.7122 9.99891L83.6613 17.2732H89.3834C89.7221 17.2732 89.9967 17.5478 89.9967 17.8882V22.729C89.9967 23.0677 89.7221 23.3423 89.3834 23.3423" fill="#0A4EE4"/>
<path d="M36.7761 40.923L36.7925 6.11675C36.7925 5.77803 36.5179 5.50179 36.1792 5.50179H30.1611C29.8224 5.50179 29.5478 5.77638 29.5478 6.1151V40.9214C29.5478 41.2601 29.8224 41.5347 30.1611 41.5347H36.1628C36.5015 41.5347 36.7761 41.2601 36.7761 40.9214" fill="#0A4EE4"/>
<path d="M68.9104 27.3231C67.0688 26.6309 64.6254 26.108 62.4648 25.7545C61.396 25.5654 60.541 25.2908 59.926 24.9356C58.872 24.3979 58.8572 22.7323 59.8964 22.1272C61.077 21.3264 63.9578 21.4004 65.1762 22.2998C65.6432 22.576 66.0164 23.0825 66.2845 23.6876C66.3749 23.8915 66.6002 23.9967 66.8123 23.9326L72.2335 22.2817C72.5952 22.1716 72.7679 21.7654 72.6051 21.4234C71.9227 19.9781 70.8605 18.7498 69.4102 17.7797C65.8701 15.2261 58.5678 15.2623 55.1789 17.9112C52.1436 19.8696 51.3872 25.2299 53.7336 27.994C55.7183 30.3617 58.9197 31.2102 62.0225 31.8646C62.0323 31.8663 62.0422 31.8679 62.0537 31.8712C63.4037 32.0817 65.7106 32.5355 66.439 33.0748C67.5917 33.7621 67.4716 35.3571 66.365 36.0987C65.7451 36.5574 64.7421 36.7893 63.3856 36.7893C60.7629 36.786 59.0101 35.8323 58.2192 33.6273C58.1452 33.4201 57.9101 33.2951 57.698 33.3494L52.2357 34.7635C51.8986 34.8506 51.698 35.2025 51.7999 35.5363C52.4133 37.5259 53.6004 39.1751 55.3384 40.336C61.1789 44.2576 74.2033 43.2513 74.0126 34.0614C74.0126 32.2691 73.5423 30.8172 72.6133 29.7484C71.704 28.7027 70.4576 27.8871 68.9087 27.3247" fill="#0A4EE4"/>
<path d="M41.117 16.9131V40.923C41.117 41.2617 41.3916 41.5363 41.7303 41.5363H47.8372C48.1759 41.5363 48.4505 41.2617 48.4505 40.923V16.9131C48.4505 16.5744 48.1759 16.2998 47.8372 16.2998H41.7303C41.3916 16.2998 41.117 16.5744 41.117 16.9131Z" fill="#0A4EE4"/>
<path d="M44.7838 7.98958C42.5771 7.98958 40.7898 6.2006 40.7898 3.99561V8.21321C40.7898 10.4198 42.5788 12.2072 44.7838 12.2072C46.9887 12.2072 48.7777 10.4182 48.7777 8.21321V3.99561C48.7777 6.20225 46.9887 7.98958 44.7838 7.98958Z" fill="#E64E36"/>
<path d="M44.7838 7.98959C46.9904 7.98959 48.7777 6.2006 48.7777 3.99562C48.7777 1.79063 46.9904 0 44.7838 0C42.5771 0 40.7898 1.78898 40.7898 3.99397C40.7898 6.2006 42.5788 7.98794 44.7838 7.98794" fill="#0A4EE4"/>
<path d="M13.3302 35.7287C9.53193 35.7287 6.77446 32.9531 6.77446 29.1269C6.77446 25.3845 9.53193 22.6681 13.3302 22.6681C17.1285 22.6681 19.835 25.3845 19.835 29.1269C19.835 32.8693 17.0989 35.7287 13.3302 35.7287ZM13.3039 15.8937C5.95725 15.8937 0 21.8509 0 29.1976C0 36.5443 5.95725 42.5015 13.3039 42.5015C20.6506 42.5015 26.6078 36.5443 26.6078 29.1976C26.6078 21.8509 20.6506 15.892 13.3039 15.892" fill="#0A4EE4"/>
</g>
<defs>
<clipPath id="clip0_610_15852">
<rect width="90" height="42.5032" fill="white"/>
</clipPath>
</defs>
</svg>
